<svg xmlns="http://www.w3.org/2000/svg" fill="none" viewBox="0 0 190 220"><path fill="#00B0F3" d="M123.315 86.797s32.353 3.148 35.408 0c3.056-3.148 3.118-17.286 2.796-24.659-.326-7.373 28.346 1.342 28.346 1.342s1.712 42.035-7.096 49.038-62.039-7.581-62.039-7.581l2.585-18.14Z"/><path fill="#00B0F3" d="M157.162 48.303s2.873 5.767 4.358 13.832c5.22.718 10.47 1.175 15.748 1.334 4.178.124 8.402.211 12.595.003-.494-12.871-2.543-23.041-2.543-23.041s-2.489-4.63-15.701-5.884c.287-8.34 3.638-16.224 3.638-16.224l-15.701-3.968c-2.872 10.11-2.394 19.18-2.394 19.18-3.542.85-9.956-4.725-9.956-4.725l-6.511 11.527c6.511 7.274 16.467 7.962 16.467 7.962v.004Z"/><path fill="#0063A2" d="M171.459 36.72s-8.425-4.913-12.381.313c-3.956 5.227-1.149 15.117 9.766 13.292 10.339 4.281 19.212-.19 18.477-9.89-8.394.189-15.862-3.715-15.862-3.715Z"/><path fill="#00B0F3" d="M187.317 40.438s-4.07 6.281-9.095 8.454c-4.737-.427-9.382-2.694-9.382-2.694.287-6.33 2.776-11.647 2.776-11.647s10.914-.397 15.701 5.884v.003Z"/><path fill="#0063A2" d="M93.777 62.958 96.596 84.5h12.362l1.692-21.54H93.777Z"/><path fill="#BB7C3D" d="M93.066 6.937s.908-5.252.999-5.448c.406-.792 11.755-1.286 13.454.385.366 1.533.704 4.909.704 4.909l-15.157.15v.004Z"/><path fill="#FFAD00" d="M84.585 12.813s-.272-5.317.817-7.118c1.089-1.8 24.366-3.643 30.676-.343 3.311 2.443 2.723 9.132 2.723 9.132L84.585 12.81v.003Z"/><path fill="#BB7C3D" d="M72.603 41.133s-3.902 1.053-4.084 1.31c-.181.258-.5 6.312 1.725 9.932.544.36 3.768 0 3.768 0l-1.409-11.246v.004Z"/><path fill="#FFAD00" d="M79.605 30.066s-7.442.765-8.106 5.643c-.664 4.991.287 18.21 3.198 22.093 2.247 2.055 8.3 1.08 8.3 1.08l-3.388-28.816h-.004Z"/><path fill="#BB7C3D" d="M132.381 41.133s3.903 1.053 4.084 1.31c.182.258.498 6.312-1.724 9.932-.545.36-3.768 0-3.768 0l1.408-11.246v.004Z"/><path fill="#FFAD00" d="M125.375 30.066s7.442.765 8.107 5.643c.664 4.991-.287 18.21-3.199 22.093-2.247 2.055-8.299 1.08-8.299 1.08l3.387-28.816h.004Z"/><path fill="#00B0F3" d="M74.733 16.886c.03.257 4.992 41.338 4.357 50.343.726 5.832 42.474 5.231 44.562 2.487 2.541-11.75 4.81-51.2 4.175-54.803-1.452-4.889-54.756-12.786-53.094 1.973Z"/><path fill="#232A32" d="M91.995 35.918c-2.36 2.71-6.342 2.727-8.941.33-.552-.508-.966.933-1.006 1.18-.116.71-.05 1.595.52 2.12 3.02 2.789 7.543 2.367 10.175-.656.654-.75.17-4.037-.751-2.974h.003ZM122.248 36.21c-2.389 2.134-6.073 2.048-8.353-.192-1.046-1.03-1.583 2.24-.861 2.947 2.861 2.81 6.967 2.895 9.966.22.744-.666.355-3.967-.752-2.975Z"/><path fill="#F5F2F9" d="M90.073 47.503s19.604-1.2 25.169.573c.301 5.66-.846 7.832-3.812 8.978-2.966 1.142-14.521 1.087-19.12-.916-4.012-1.746-2.24-8.635-2.24-8.635h.003Z"/><path fill="#D3CCE0" d="m110.86 47.362-.512 9.987c.439-.09.809-.189 1.1-.299a8.13 8.13 0 0 0 .526-.223c.16-3.1.316-6.202.476-9.303a37.216 37.216 0 0 0-1.59-.162ZM94.124 47.308l-1.6.068c.058 2.971.116 5.939.17 8.91.48.185 1.02.353 1.612.5-.062-3.16-.123-6.319-.182-9.478ZM99.68 47.14c-.551.01-1.1.02-1.63.034.012 3.423.019 6.85.03 10.274.534.062 1.078.117 1.63.165-.011-3.492-.018-6.985-.03-10.474ZM106.04 57.774l-.189-10.641c-.53-.01-1.064-.017-1.601-.02.065 3.563.127 7.128.192 10.689.549 0 1.082-.01 1.601-.028h-.003Z"/><path fill="#0063A2" d="M123.622 69.785c-14.049 1.794-41.661-1.29-41.603-7.222-.095-5.502-3.892-25.835-6.538-39.393 1.36 11.908 4.109 37.242 3.626 44.083.723 5.798 41.988 5.238 44.515 2.535v-.003Z"/><path fill="#0063A2" d="M95.383 59.555s7.533 1.16 14.477.384c-5.608 3.516-13.069.943-14.477-.384ZM86.941 27.606s6.578-2.703 10.848.515c-1.09-6.045-8.67-5.873-10.848-.515ZM109.812 28.12s3.631-3.56 8.986-.686c-1.816-5.231-8.532-5.358-8.986.687Z"/><path fill="#00B0F3" d="m69.414 96.593 3.374 68.402c14.242 6.236 62.494 3.212 63.643.945.766-6.236.82-67.08.82-67.08s-7.522-20.72-34.118-20.596c-25.746.12-33.719 18.329-33.719 18.329Z"/><path fill="#0063A2" d="M103.173 78.264a49.677 49.677 0 0 0-3.052.106c1.474 12.852 5.017 49.298 3.328 90.328 1.168.008 2.336.004 3.496-.007-.241-10.536-1.401-65.069-.16-90.314a50.832 50.832 0 0 0-3.612-.117v.004Z"/><path fill="#0063A2" d="M104.809 121.977c6.648 0 12.037-6.021 12.037-13.448 0-7.427-5.389-13.447-12.037-13.447-6.647 0-12.036 6.02-12.036 13.447s5.39 13.448 12.036 13.448Z"/><path fill="#6887AF" d="M104.808 118.905c4.759 0 8.617-4.646 8.617-10.376 0-5.73-3.858-10.376-8.617-10.376s-8.617 4.646-8.617 10.376c0 5.73 3.858 10.376 8.617 10.376Z"/><path fill="#D8FFEE" d="M104.81 117.924c4.07 0 7.369-4.206 7.369-9.395 0-5.189-3.299-9.395-7.369-9.395-4.069 0-7.369 4.206-7.369 9.395 0 5.189 3.3 9.395 7.369 9.395Z"/><path fill="#BAEBDF" d="M103.214 111.436c-2.335-1.976-3.115-4.711-2.995-7.455-.995 1.339-1.61 3.15-1.61 5.147 0 4.121 2.607 7.461 5.823 7.461 1.848 0 3.495-1.105 4.561-2.829-2.134-.2-4.197-.98-5.779-2.322v-.002Z"/><path fill="#fff" d="M106.115 106.784c1.41 0 2.552-1.256 2.552-2.805 0-1.549-1.142-2.806-2.552-2.806-1.41 0-2.553 1.257-2.553 2.806 0 1.549 1.143 2.805 2.553 2.805ZM108.996 111.141c.903 0 1.636-.871 1.636-1.945s-.733-1.945-1.636-1.945c-.904 0-1.637.871-1.637 1.945s.733 1.945 1.637 1.945Z"/><path fill="#0063A2" d="m72.7 162.255.133 2.74c14.242 6.235 62.495 3.212 63.644.945.191-1.546.336-6.448.448-12.948-6.449 2.476-14.426 5.2-14.426 5.2s2.872-2.834 6.127-10.581c-19.259 10.249-38.089 2.521-55.93 14.644h.003Z"/><path fill="#00B0F3" d="M78.808 167.361c3.768-3.609 8.946-6.943 15.69-8.027 2.562 0 7.299 2.018 14.031 9.342 2.237 2.434 4.695 5.449 7.365 9.176 14.632 20.407 36.208 22.928 33.527 6.549-1.98-12.086-15.077-15.937-21.809-17.127 3.55-.559 6.587-1.304 8.797-2.271l.459-9.331c9.888 1.043 37.848 6.534 36.76 35.282-1.317 34.893-35.446 34.768-57.018 18.393-21.572-16.375-38.296-27.841-45.817-30.611.08-.446 2.593-6.19 8.008-11.371l.007-.004Z"/><path fill="#0063A2" d="M145.769 194.253c2.953-1.455 4.488-4.728 3.65-9.852-1.98-12.086-15.077-15.937-21.81-17.127 3.55-.559 6.587-1.304 8.797-2.271l.459-9.331c3.891.412 10.578 1.512 17.195 4.444 6.621 10.166 12.592 26.378-8.295 34.137h.004Z"/><path fill="#00B0F3" d="M130.417 167.361c-3.768-3.609-8.946-6.943-15.69-8.027-2.562 0-7.299 2.018-14.031 9.342-2.237 2.434-4.695 5.449-7.364 9.176-14.633 20.407-36.209 22.928-33.528 6.549 1.98-12.086 15.077-15.937 21.81-17.127-3.55-.559-6.588-1.304-8.797-2.271l-.46-9.331c-9.888 1.043-37.847 6.534-36.76 35.282 1.318 34.893 35.447 34.768 57.018 18.393 21.572-16.375 38.296-27.841 45.817-30.611-.08-.446-2.592-6.19-8.007-11.371l-.008-.004Z"/><path fill="#0063A2" d="M131.735 182.027c-6.897-11.28-22.338-16.359-26.715-17.607-1.336 1.164-2.776 2.566-4.327 4.252-2.237 2.434-4.695 5.449-7.364 9.176-2.918 4.07-6.112 7.426-9.337 10.063 2.91 3.443 7.678 10.401 9.563 20.714 16.133-12.218 29.476-21.62 38.18-26.594v-.004ZM63.454 194.253c-2.952-1.455-4.488-4.728-3.65-9.852 1.98-12.086 15.078-15.937 21.81-17.127-3.55-.559-6.587-1.304-8.797-2.271l-.46-9.331c-3.89.412-10.576 1.512-17.194 4.444-6.621 10.166-12.591 26.378 8.295 34.137h-.004Z"/><path fill="#00B0F3" d="M122.971 213.504c5.331-5.828 9.539-12.381 11.128-20.098-5.909-2.498-12.568-7.698-18.201-15.555-2.673-3.726-5.128-6.741-7.365-9.175-6.732-7.324-11.47-9.342-14.031-9.342-6.744 1.084-11.921 4.421-15.69 8.027-5.415 5.181-7.927 10.925-8.007 11.371 7.52 2.77 24.24 14.236 45.816 30.611a54.485 54.485 0 0 0 6.358 4.157l-.008.004Z"/><path fill="#0063A2" d="M148.001 219.955c.793-8.541-.931-17.282-5.177-24.886-.923.099-1.915.083-2.961-.045 4.033 5.842 6.514 12.705 6.752 19.821a34.396 34.396 0 0 1-.219 5.151c.537 0 1.073-.018 1.605-.045v.004ZM147.992 179.832a16.824 16.824 0 0 1 1.249 3.643c7.176-.582 14.479 1.009 20.675 4.781a32.423 32.423 0 0 1 3.723 2.645c.053-1.421.03-2.785-.054-4.097a35.574 35.574 0 0 0-2.179-1.568c-6.855-4.524-15.276-6.36-23.406-5.404h-.008ZM40.112 185.187c6.005-3.488 13.377-4.176 19.975-2.2a16.745 16.745 0 0 1 1.252-3.412c-7.613-2.589-16.333-1.701-23.054 2.868a25.189 25.189 0 0 0-2.409 1.863 36.878 36.878 0 0 0-.321 4.327 23.853 23.853 0 0 1 4.553-3.446h.004ZM58.932 214.297c.395-6.863 2.467-13.559 5.86-19.534a7.413 7.413 0 0 1-2.084-.933c-3.312 6.522-5.181 13.722-5.495 21.057a54.512 54.512 0 0 0-.008 4.614c.552.098 1.11.182 1.678.25a52.95 52.95 0 0 1 .05-5.454Z"/><path fill="#0063A2" d="M63.453 194.253c-3.374-1.791-4.16-5.015-3.807-8.669-4.576-3.87-13.63-7.007-21.622-9.191-1.715 4.028-2.654 8.828-2.44 14.557.307 8.14 2.682 19.202 11.926 24.855 6.346-1.7 14.801-7.116 15.943-21.552Z"/><path fill="#00B0F3" d="M30.723 153.352s-16.264-.165-26.449 11.511l7.299 11.827 8.252-6.116c.06.292-10.466 19.453-10.466 19.453l13.205 6.01 5.89-10.841 1.348 3.09c6.054.531 17.38.704 17.38.704 2.942-5.945 6.666-22.173 6.666-22.173s11.821-17.238 17.282-34.019c0 0 8.185-31.995-.574-38.091-2.585 3.06-39.834 58.645-39.834 58.645Z"/><path fill="#0063A2" d="m29.849 188.261-1.35-3.095s-9.93-2.965-9.527-9.786c.327-5.521 6.742-8.229 13.48-3.108 12.958-4.093 19.34 1.974 13.381 14.953-8.423-1.997-15.984 1.032-15.984 1.032v.004Z"/><path fill="#00B0F3" d="M29.86 188.262s-.513-4.975 2.981-13.573c0 0 8.847.626 11.897 1.381 2.101 7.448 2.526 12.897 2.526 12.897s-7.969.623-17.403-.705Z"/><path fill="#0063A2" d="M56.263 162.049c-3.247-3.101-6.886-5.804-10.754-8.089a58.64 58.64 0 0 0-11.688-5.27c-.554.679-1.59 2.6-2.036 3.13 4.22 1.492 8.809 2.095 12.682 4.495a61.996 61.996 0 0 1 9.937 7.688c.282.266.556.543.826.822.419-.648.92-1.435 1.484-2.35-.148-.143-.3-.283-.444-.425l-.007-.001ZM72.075 124.642c.135-1.278.282-2.678.431-4.161a50.676 50.676 0 0 0-2.144-2.312c-2.97-3.007-6.35-5.74-10.025-7.968-.478.754-.947 1.494-1.414 2.223 3.39 2.2 6.537 4.738 9.358 7.727a52.614 52.614 0 0 1 3.79 4.491h.004ZM60.416 138.763c-4.311-3.38-9.28-6.141-14.293-8.23-.475.663-.944 1.309-1.4 1.94 4.922 2.277 9.808 5.187 13.945 8.491a60.852 60.852 0 0 1 6.571 6.11c.462-.908.921-1.836 1.37-2.772a64.923 64.923 0 0 0-6.189-5.538l-.004-.001Z"/><path fill="#0063A2" d="M71.577 131.955s1.872-13.398 1.118-20.866c-3.336 21.352-4.738 30.536-4.738 30.536s3.344-8.207 3.62-9.67ZM140.749 88.018c-.796-.034-1.589-.072-2.378-.114.096 7.184.77 14.32 2.08 21.462.022.121.046.238.069.359 1.064.231 2.148.461 3.247.688-.103-.503-.207-1.005-.306-1.508a160.568 160.568 0 0 1-2.712-20.891v.004ZM170.994 107.605c-3.948-4.75-7.418-9.864-10.485-15.207a110.491 110.491 0 0 1-2.731-5.064c-.812.29-2.007.499-3.473.638.386.85.785 1.697 1.206 2.532a100.652 100.652 0 0 0 7.575 12.702 109.387 109.387 0 0 0 8.984 11.198c1.804.041 3.466 0 4.94-.144a109.348 109.348 0 0 1-6.012-6.651l-.004-.004ZM161.648 67.701c0 .99 0 2.015-.023 3.046a97.725 97.725 0 0 0 20.488 5.926c2.589.453 5.197.816 7.816 1.092.031-1.24.05-2.434.058-3.571a103.961 103.961 0 0 1-7.253-.96 124.136 124.136 0 0 1-21.086-5.533Z"/></svg>