<svg width="238" height="55" viewBox="0 0 238 55" fill="none" xmlns="http://www.w3.org/2000/svg">
<path d="M26.7393 17.9594C34.9859 30.4724 26.7393 41.3169 16.0187 41.3169C-0.475631 41.3169 -2.94387 22.9646 4.4748 12.12C4.4748 16.291 6.26873 18.7936 7.91805 19.6278C7.91805 10.1622 16.0197 7.94906 12.7211 0.441284C25.9156 7.11486 20.1455 14.6226 20.9702 18.7936C21.7948 22.9646 25.9181 22.1304 26.7393 17.9594Z" fill="url(#paint0_radial_934_1169)"/>
<path d="M25.1139 32.5585C24.4582 38.4444 18.7462 39.9073 16.0173 39.9073C5.829 39.9073 3.38071 31.6253 7.01886 25.9095C7.01939 28.3591 10.5588 30.1089 11.4685 27.6592C13.0176 23.4877 8.42698 20.252 17.524 14.5363C13.8854 24.3347 26.0236 24.3931 25.1139 32.5585Z" fill="url(#paint1_radial_934_1169)"/>
<path d="M11.7882 35.8598C12.0013 37.9727 13.8578 38.4979 14.7448 38.4979C20.6327 38.4979 17.5957 30.6123 14.741 28.6313C15.4682 33.9441 11.4925 32.9287 11.7882 35.8598Z" fill="white"/>
<path d="M110.731 16.9725C112.827 18.4272 115.055 23.4413 110.731 23.4413C107.199 23.4413 108.849 18.8 110.731 16.9725Z" fill="url(#paint2_radial_934_1169)"/>
<path fill-rule="evenodd" clip-rule="evenodd" d="M44.3496 39.6913V36.4433H46.9256V23.3393H44.3496V20.0913H54.4296C55.6243 20.0913 56.6603 20.2966 57.5376 20.7073C58.4336 21.0993 59.1243 21.6686 59.6096 22.4153C60.1136 23.1433 60.3656 24.0206 60.3656 25.0473V25.3273C60.3656 26.2233 60.1976 26.9606 59.8616 27.5393C59.5256 28.0993 59.1243 28.538 58.6576 28.8553C58.2096 29.154 57.7803 29.3686 57.3696 29.4993V30.0033C57.7803 30.1153 58.2283 30.33 58.7136 30.6473C59.1989 30.946 59.6096 31.3846 59.9456 31.9633C60.3003 32.542 60.4776 33.298 60.4776 34.2313V34.5113C60.4776 35.594 60.2256 36.5273 59.7216 37.3113C59.2176 38.0766 58.5176 38.6646 57.6216 39.0753C56.7443 39.486 55.7176 39.6913 54.5416 39.6913H44.3496ZM50.6216 36.3313H54.0936C54.8963 36.3313 55.5403 36.1353 56.0256 35.7433C56.5296 35.3513 56.7816 34.7913 56.7816 34.0633V33.7833C56.7816 33.0553 56.5389 32.4953 56.0536 32.1033C55.5683 31.7113 54.9149 31.5153 54.0936 31.5153H50.6216V36.3313ZM50.6216 28.1553H54.0376C54.8029 28.1553 55.4283 27.9593 55.9136 27.5673C56.4176 27.1753 56.6696 26.634 56.6696 25.9433V25.6633C56.6696 24.954 56.4269 24.4126 55.9416 24.0393C55.4563 23.6473 54.8216 23.4513 54.0376 23.4513H50.6216V28.1553Z" fill="url(#paint3_radial_934_1169)"/>
<path d="M116.664 25.8032V39.6912H120.192V32.6352C120.192 31.3472 120.491 30.3486 121.088 29.6392C121.685 28.9112 122.525 28.5472 123.608 28.5472C124.56 28.5472 125.288 28.8086 125.792 29.3312C126.315 29.8539 126.576 30.6379 126.576 31.6832V39.6912H130.104V31.4032C130.104 30.2459 129.88 29.2379 129.432 28.3792C128.984 27.5019 128.349 26.8206 127.528 26.3352C126.725 25.8312 125.783 25.5792 124.7 25.5792C123.449 25.5792 122.516 25.8032 121.9 26.2512C121.284 26.6806 120.864 27.1379 120.64 27.6232H120.136V25.8032H116.664Z" fill="url(#paint4_radial_934_1169)"/>
<path d="M109.225 39.6913V25.8033H112.753V39.6913H109.225Z" fill="url(#paint5_radial_934_1169)"/>
<path d="M159.91 20.0913V39.6913H163.494V22.8073H163.998L167.358 39.6913H173.462L176.822 22.8073H177.326V39.6913H180.91V20.0913H174.05L170.662 37.1713H170.158L166.77 20.0913H159.91Z" fill="url(#paint6_radial_934_1169)"/>
<path d="M200.875 39.6912V25.8032H204.347V27.3152H204.851C205.094 26.8486 205.495 26.4472 206.055 26.1112C206.615 25.7566 207.352 25.5792 208.267 25.5792C209.256 25.5792 210.05 25.7752 210.647 26.1672C211.244 26.5406 211.702 27.0352 212.019 27.6512H212.523C212.84 27.0539 213.288 26.5592 213.867 26.1672C214.446 25.7752 215.267 25.5792 216.331 25.5792C217.19 25.5792 217.964 25.7659 218.655 26.1392C219.364 26.4939 219.924 27.0446 220.335 27.7912C220.764 28.5192 220.979 29.4432 220.979 30.5632V39.6912H217.451V30.8152C217.451 30.0499 217.255 29.4806 216.863 29.1072C216.471 28.7152 215.92 28.5192 215.211 28.5192C214.408 28.5192 213.783 28.7806 213.335 29.3032C212.906 29.8072 212.691 30.5352 212.691 31.4872V39.6912H209.163V30.8152C209.163 30.0499 208.967 29.4806 208.575 29.1072C208.183 28.7152 207.632 28.5192 206.923 28.5192C206.12 28.5192 205.495 28.7806 205.047 29.3032C204.618 29.8072 204.403 30.5352 204.403 31.4872V39.6912H200.875Z" fill="url(#paint7_radial_934_1169)"/>
<path d="M91.9727 39.6912V25.8032H95.4447V27.6232H95.9487C96.1727 27.1379 96.5927 26.6806 97.2087 26.2512C97.8247 25.8032 98.758 25.5792 100.009 25.5792C101.091 25.5792 102.034 25.8312 102.837 26.3352C103.658 26.8206 104.293 27.5019 104.741 28.3792C105.189 29.2379 105.413 30.2459 105.413 31.4032V39.6912H101.885V31.6832C101.885 30.6379 101.623 29.8539 101.101 29.3312C100.597 28.8086 99.8687 28.5472 98.9167 28.5472C97.834 28.5472 96.994 28.9112 96.3967 29.6392C95.7993 30.3486 95.5007 31.3472 95.5007 32.6352V39.6912H91.9727Z" fill="url(#paint8_radial_934_1169)"/>
<path d="M80.8711 39.6913V25.8033H84.3431V27.3713H84.8471C85.0524 26.8113 85.3884 26.4006 85.8551 26.1393C86.3404 25.878 86.9004 25.7473 87.5351 25.7473H89.2151V28.8833H87.4791C86.5831 28.8833 85.8458 29.126 85.2671 29.6113C84.6884 30.078 84.3991 30.806 84.3991 31.7953V39.6913H80.8711Z" fill="url(#paint9_radial_934_1169)"/>
<path d="M68.9079 39.9153C67.8252 39.9153 66.8732 39.6727 66.0519 39.1873C65.2492 38.6833 64.6239 37.9927 64.1759 37.1153C63.7279 36.238 63.5039 35.23 63.5039 34.0913V25.8033H67.0319V33.8113C67.0319 34.8567 67.2839 35.6407 67.7879 36.1633C68.3106 36.686 69.0479 36.9473 69.9999 36.9473C71.0826 36.9473 71.9226 36.5927 72.5199 35.8833C73.1172 35.1553 73.4159 34.1473 73.4159 32.8593V25.8033H76.9439V39.6913H73.4719V37.8713H72.9679C72.7439 38.338 72.3239 38.7953 71.7079 39.2433C71.0919 39.6913 70.1586 39.9153 68.9079 39.9153Z" fill="url(#paint10_radial_934_1169)"/>
<path fill-rule="evenodd" clip-rule="evenodd" d="M227.432 39.2153C228.496 39.7939 229.718 40.0833 231.1 40.0833C232.369 40.0833 233.414 39.8873 234.236 39.4953C234.765 39.2305 235.225 38.9348 235.615 38.608L233.533 36.2286C233.527 36.2346 233.521 36.2406 233.514 36.2466C233.505 36.2561 233.495 36.2655 233.485 36.275C233.474 36.2859 233.462 36.2969 233.451 36.3078C233.433 36.325 233.414 36.3422 233.396 36.3593C232.929 36.7886 232.201 37.0033 231.212 37.0033C230.241 37.0033 229.42 36.7046 228.748 36.1073C228.076 35.5099 227.721 34.7353 227.684 33.7833H237.792V32.5793C237.792 31.1606 237.512 29.9193 236.952 28.8553C236.392 27.7726 235.608 26.9326 234.6 26.3353C233.592 25.7193 232.406 25.4113 231.044 25.4113C229.662 25.4113 228.449 25.7099 227.404 26.3073C226.358 26.8859 225.546 27.7166 224.968 28.7993C224.389 29.8633 224.1 31.1233 224.1 32.5793V32.9153C224.1 34.3713 224.389 35.6406 224.968 36.7233C225.565 37.7873 226.386 38.6179 227.432 39.2153ZM234.208 31.1513H227.712C227.842 30.3486 228.188 29.7046 228.748 29.2193C229.308 28.7339 230.064 28.4913 231.016 28.4913C231.93 28.4913 232.668 28.7339 233.228 29.2193C233.806 29.7046 234.133 30.3486 234.208 31.1513Z" fill="url(#paint11_radial_934_1169)"/>
<path fill-rule="evenodd" clip-rule="evenodd" d="M187.395 39.2153C188.458 39.7939 189.681 40.0833 191.062 40.0833C192.332 40.0833 193.377 39.8873 194.199 39.4953C194.728 39.2305 195.188 38.9348 195.577 38.608L193.496 36.2286C193.451 36.2726 193.405 36.3162 193.358 36.3593C192.892 36.7886 192.164 37.0033 191.174 37.0033C190.204 37.0033 189.382 36.7046 188.71 36.1073C188.038 35.5099 187.684 34.7353 187.646 33.7833H197.755V32.5793C197.755 31.1606 197.474 29.9193 196.914 28.8553C196.354 27.7726 195.57 26.9326 194.562 26.3353C193.555 25.7193 192.369 25.4113 191.007 25.4113C189.625 25.4113 188.412 25.7099 187.367 26.3073C186.321 26.8859 185.509 27.7166 184.93 28.7993C184.352 29.8633 184.062 31.1233 184.062 32.5793V32.9153C184.062 34.3713 184.352 35.6406 184.93 36.7233C185.528 37.7873 186.349 38.6179 187.395 39.2153ZM194.171 31.1513H187.674C187.805 30.3486 188.15 29.7046 188.71 29.2193C189.27 28.7339 190.027 28.4913 190.979 28.4913C191.893 28.4913 192.63 28.7339 193.19 29.2193C193.769 29.7046 194.096 30.3486 194.171 31.1513Z" fill="url(#paint12_radial_934_1169)"/>
<path d="M141.89 44.7692C142.01 44.7848 142.13 44.8006 142.249 44.8163C147.121 45.4597 150.329 48.6957 148.471 54.4413C146.504 51.0425 144.489 50.7432 139.687 50.0298C139.493 50.001 139.295 49.9716 139.092 49.9413C133.182 49.0574 132.778 44.3922 134.565 40.4882C135.288 43.9069 138.68 44.3499 141.89 44.7692Z" fill="url(#paint13_radial_934_1169)"/>
<path fill-rule="evenodd" clip-rule="evenodd" d="M146.649 28.5656C147.416 29.7346 147.862 31.1328 147.862 32.6352C147.862 36.7392 144.535 40.0661 140.431 40.0661C136.327 40.0661 133 36.7392 133 32.6352C133 28.5313 136.327 25.2043 140.431 25.2043C141.791 25.2043 143.065 25.5697 144.162 26.2075C145.358 25.1405 147.272 24.3663 149.999 24.3663V27.7663C148.187 27.7663 147.192 28.1639 146.649 28.5656ZM136.6 32.6352C136.6 30.5195 138.315 28.8043 140.431 28.8043C142.547 28.8043 144.262 30.5195 144.262 32.6352C144.262 34.7509 142.547 36.4661 140.431 36.4661C138.315 36.4661 136.6 34.7509 136.6 32.6352Z" fill="url(#paint14_radial_934_1169)"/>
<defs>
<radialGradient id="paint0_radial_934_1169" cx="0" cy="0" r="1" gradientUnits="userSpaceOnUse" gradientTransform="translate(15.34 41.3169) rotate(-90) scale(26.6943 26.3892)">
<stop stop-color="#FFCF14"/>
<stop offset="1" stop-color="#FF2C2C"/>
</radialGradient>
<radialGradient id="paint1_radial_934_1169" cx="0" cy="0" r="1" gradientUnits="userSpaceOnUse" gradientTransform="translate(16.5688 39.9073) rotate(-90) scale(24.4962 25.1043)">
<stop stop-color="#FFE600"/>
<stop offset="1" stop-color="#FF8A00"/>
</radialGradient>
<radialGradient id="paint2_radial_934_1169" cx="0" cy="0" r="1" gradientUnits="userSpaceOnUse" gradientTransform="translate(44.3496 16.9725) scale(238.15 238.15)">
<stop stop-color="#FFCF14"/>
<stop offset="0.5" stop-color="#FF4747"/>
<stop offset="1" stop-color="#0085FF"/>
</radialGradient>
<radialGradient id="paint3_radial_934_1169" cx="0" cy="0" r="1" gradientUnits="userSpaceOnUse" gradientTransform="translate(44.3496 16.9725) scale(238.15 238.15)">
<stop stop-color="#FFCF14"/>
<stop offset="0.5" stop-color="#FF4747"/>
<stop offset="1" stop-color="#0085FF"/>
</radialGradient>
<radialGradient id="paint4_radial_934_1169" cx="0" cy="0" r="1" gradientUnits="userSpaceOnUse" gradientTransform="translate(44.3496 16.9725) scale(238.15 238.15)">
<stop stop-color="#FFCF14"/>
<stop offset="0.5" stop-color="#FF4747"/>
<stop offset="1" stop-color="#0085FF"/>
</radialGradient>
<radialGradient id="paint5_radial_934_1169" cx="0" cy="0" r="1" gradientUnits="userSpaceOnUse" gradientTransform="translate(44.3496 16.9725) scale(238.15 238.15)">
<stop stop-color="#FFCF14"/>
<stop offset="0.5" stop-color="#FF4747"/>
<stop offset="1" stop-color="#0085FF"/>
</radialGradient>
<radialGradient id="paint6_radial_934_1169" cx="0" cy="0" r="1" gradientUnits="userSpaceOnUse" gradientTransform="translate(44.3496 16.9725) scale(238.15 238.15)">
<stop stop-color="#FFCF14"/>
<stop offset="0.5" stop-color="#FF4747"/>
<stop offset="1" stop-color="#0085FF"/>
</radialGradient>
<radialGradient id="paint7_radial_934_1169" cx="0" cy="0" r="1" gradientUnits="userSpaceOnUse" gradientTransform="translate(44.3496 16.9725) scale(238.15 238.15)">
<stop stop-color="#FFCF14"/>
<stop offset="0.5" stop-color="#FF4747"/>
<stop offset="1" stop-color="#0085FF"/>
</radialGradient>
<radialGradient id="paint8_radial_934_1169" cx="0" cy="0" r="1" gradientUnits="userSpaceOnUse" gradientTransform="translate(44.3496 16.9725) scale(238.15 238.15)">
<stop stop-color="#FFCF14"/>
<stop offset="0.5" stop-color="#FF4747"/>
<stop offset="1" stop-color="#0085FF"/>
</radialGradient>
<radialGradient id="paint9_radial_934_1169" cx="0" cy="0" r="1" gradientUnits="userSpaceOnUse" gradientTransform="translate(44.3496 16.9725) scale(238.15 238.15)">
<stop stop-color="#FFCF14"/>
<stop offset="0.5" stop-color="#FF4747"/>
<stop offset="1" stop-color="#0085FF"/>
</radialGradient>
<radialGradient id="paint10_radial_934_1169" cx="0" cy="0" r="1" gradientUnits="userSpaceOnUse" gradientTransform="translate(44.3496 16.9725) scale(238.15 238.15)">
<stop stop-color="#FFCF14"/>
<stop offset="0.5" stop-color="#FF4747"/>
<stop offset="1" stop-color="#0085FF"/>
</radialGradient>
<radialGradient id="paint11_radial_934_1169" cx="0" cy="0" r="1" gradientUnits="userSpaceOnUse" gradientTransform="translate(44.3496 16.9725) scale(238.15 238.15)">
<stop stop-color="#FFCF14"/>
<stop offset="0.5" stop-color="#FF4747"/>
<stop offset="1" stop-color="#0085FF"/>
</radialGradient>
<radialGradient id="paint12_radial_934_1169" cx="0" cy="0" r="1" gradientUnits="userSpaceOnUse" gradientTransform="translate(44.3496 16.9725) scale(238.15 238.15)">
<stop stop-color="#FFCF14"/>
<stop offset="0.5" stop-color="#FF4747"/>
<stop offset="1" stop-color="#0085FF"/>
</radialGradient>
<radialGradient id="paint13_radial_934_1169" cx="0" cy="0" r="1" gradientUnits="userSpaceOnUse" gradientTransform="translate(44.3496 16.9725) scale(238.15 238.15)">
<stop stop-color="#FFCF14"/>
<stop offset="0.5" stop-color="#FF4747"/>
<stop offset="1" stop-color="#0085FF"/>
</radialGradient>
<radialGradient id="paint14_radial_934_1169" cx="0" cy="0" r="1" gradientUnits="userSpaceOnUse" gradientTransform="translate(44.3496 16.9725) scale(238.15 238.15)">
<stop stop-color="#FFCF14"/>
<stop offset="0.5" stop-color="#FF4747"/>
<stop offset="1" stop-color="#0085FF"/>
</radialGradient>
</defs>
</svg>
